<svg width="966" height="269" viewBox="0 0 966 269" fill="none" xmlns="http://www.w3.org/2000/svg">
<g clip-path="url(#clip0_6239_5144)">
<path d="M361.268 171.401C348.348 171.401 335.818 174.951 328.698 189.241V175.101C328.698 174.011 327.928 173.261 326.808 173.261H317.288C316.158 173.261 315.398 173.991 315.398 175.101V264.201H315.428C315.428 265.291 316.168 266.041 317.318 266.041H326.838C327.968 266.041 328.728 265.311 328.728 264.201V207.211C328.728 188.641 341.618 182.141 353.978 182.141C366.338 182.141 378.868 188.641 378.868 207.211V264.201C378.868 265.291 379.608 266.041 380.738 266.041H390.308C391.408 266.041 392.148 265.311 392.148 264.201V201.851C392.148 183.461 379.998 171.391 361.268 171.391V171.401Z" fill="#00313C"/>
<path d="M484.962 173.961H475.393C474.293 173.961 473.522 174.691 473.522 175.801V232.811C473.522 251.181 460.993 257.681 448.453 257.681C435.913 257.681 423.332 251.181 423.332 232.811V175.801C423.332 174.711 422.612 173.961 421.492 173.961H411.953C410.823 173.961 410.062 174.691 410.062 175.801V237.991C410.062 256.561 422.422 268.611 440.962 268.611C453.852 268.611 466.413 265.091 473.533 252.291V264.911C473.533 266.001 474.272 266.751 475.402 266.751H484.973C486.073 266.751 486.812 266.021 486.812 264.911V175.801C486.812 174.711 486.093 173.961 484.973 173.961H484.962Z" fill="#00313C"/>
<path d="M538.678 254.97H528.188C520.158 254.97 515.478 250.55 515.478 242.38V184.44H538.118C539.248 184.44 540.008 183.69 540.008 182.56V175.35C540.008 174.26 539.268 173.51 538.118 173.51H515.478V155.37C515.478 154.26 514.738 153.49 513.588 153.49L504.068 154.94C502.938 154.94 502.178 155.71 502.178 156.82V173.51L502.148 184.4V243.83C502.148 257.35 510.948 266.05 526.118 266.05H538.678C539.778 266.05 540.518 265.33 540.518 264.21V256.8C540.518 255.71 539.798 254.96 538.678 254.96V254.97Z" fill="#00313C"/>
<path d="M684.499 254.97H674.009C665.979 254.97 661.299 250.55 661.299 242.38V184.44H683.939C685.069 184.44 685.829 183.69 685.829 182.56V175.35C685.829 174.26 685.089 173.51 683.939 173.51H661.299V155.37C661.299 154.26 660.559 153.49 659.409 153.49L649.889 154.94C648.759 154.94 647.999 155.71 647.999 156.82V173.51L647.969 184.4V243.83C647.969 257.35 656.769 266.05 671.939 266.05H684.499C685.599 266.05 686.339 265.33 686.339 264.21V256.8C686.339 255.71 685.619 254.96 684.499 254.96V254.97Z" fill="#00313C"/>
<path d="M594.96 173.961H582.4C567.23 173.961 558.43 182.601 558.43 196.071V266.061H571.73L571.75 266.041V197.521C571.75 189.421 576.41 185.001 584.46 185.001H594.95C596.05 185.001 596.79 184.281 596.79 183.171V175.791C596.79 174.711 596.07 173.961 594.95 173.961H594.96Z" fill="#00313C"/>
<path d="M628.273 173.961H619.263C618.013 173.961 617.273 174.681 617.273 175.791V264.231C617.273 265.311 617.993 266.061 619.263 266.061H628.273C629.343 266.061 630.063 265.341 630.063 264.231V175.791C630.063 174.711 629.373 173.961 628.273 173.961Z" fill="#00313C"/>
<path d="M714.888 173.961H704.088C702.558 173.961 701.688 174.681 701.688 175.791V264.231C701.688 265.311 702.528 266.061 704.088 266.061H714.888C716.168 266.061 717.037 265.341 717.037 264.231V175.791C717.037 174.711 716.198 173.961 714.888 173.961Z" fill="#00313C"/>
<path d="M777.361 171.4C750.501 171.4 732.391 191.02 732.391 220.21C732.391 249.4 750.711 268.61 777.361 268.61C804.011 268.61 821.921 249.4 821.921 220.21C821.921 191.02 804.221 171.4 777.361 171.4ZM777.361 256.66C758.711 256.66 746.761 242.65 746.761 220.21C746.761 197.77 759.071 183.19 777.361 183.19C795.651 183.19 807.781 197.77 807.781 220.21C807.781 242.65 796.011 256.66 777.361 256.66Z" fill="#00313C"/>
<path d="M885.698 171.401C872.778 171.401 860.248 174.951 853.128 189.241V175.101C853.128 174.011 852.358 173.261 851.238 173.261H841.718C840.588 173.261 839.828 173.991 839.828 175.101V264.201H839.858C839.858 265.291 840.598 266.041 841.748 266.041H851.268C852.398 266.041 853.158 265.311 853.158 264.201V207.211C853.158 188.641 866.048 182.141 878.408 182.141C890.768 182.141 903.298 188.641 903.298 207.211V264.201C903.298 265.291 904.038 266.041 905.168 266.041H914.738C915.838 266.041 916.578 265.311 916.578 264.201V201.851C916.578 183.461 904.428 171.391 885.698 171.391V171.401Z" fill="#00313C"/>
<path d="M358.891 49.4598C368.411 49.4598 375.801 54.9098 379.661 64.1898C380.021 65.2898 380.891 65.6598 381.781 65.6598H398.151C399.381 65.6598 400.091 64.9298 399.741 63.6598C394.961 44.5298 378.611 33.2598 359.061 33.2598C333.531 33.2598 315.391 52.3598 315.391 80.9398C315.391 109.52 333.531 127.91 359.061 127.91C378.781 127.91 394.981 116.61 399.741 97.8598C400.101 96.5898 399.381 95.8598 398.151 95.8598H381.601C380.731 95.8598 380.011 96.2298 379.661 97.3298C375.801 106.23 368.401 111.71 358.891 111.71C344.461 111.71 334.951 99.5098 334.951 80.9398C334.951 62.3698 344.471 49.4598 358.891 49.4598Z" fill="#00313C"/>
<path d="M492.762 98.06V98.08H475.292C474.392 98.08 473.682 98.43 473.142 99.34C469.352 106.98 462.112 111.72 452.572 111.72C438.142 111.72 428.782 100.97 427.682 84.22H491.302C492.402 84.22 493.122 83.48 493.122 82.4V76.03C493.122 45.97 473.292 33.25 451.472 33.25C425.532 33.25 407.492 52.35 407.492 80.93C407.492 109.51 426.062 127.9 452.742 127.9C472.752 127.9 488.612 117.34 494.392 100.05C494.752 98.78 494.012 98.05 492.752 98.05L492.762 98.06ZM451.862 49.48C462.142 49.48 472.612 56.04 472.612 72.24H428.282C430.612 58.23 439.252 49.48 451.872 49.48H451.862Z" fill="#00313C"/>
<path d="M562.504 123.55C562.504 124.65 563.244 125.35 564.344 125.35H579.644C580.744 125.35 581.464 124.62 581.464 123.55V62.6898C581.464 46.0898 571.434 33.2598 552.664 33.2598C539.364 33.2598 528.024 36.8698 521.124 49.1498V36.8698C521.124 35.7998 520.384 35.0698 519.304 35.0698H503.984C502.884 35.0698 502.164 35.7998 502.164 36.8698V123.55C502.164 124.65 502.904 125.35 503.984 125.35H519.304C520.374 125.35 521.124 124.62 521.124 123.55V68.4598C521.124 53.4798 531.514 47.6798 541.924 47.6798C552.334 47.6798 562.514 53.4598 562.514 68.4598V123.55H562.504Z" fill="#00313C"/>
<path d="M691.461 37.6005C691.461 36.5105 690.741 35.8105 689.671 35.8105H675.401C659.311 35.8105 650.531 44.5905 650.531 58.0105V125.341H669.131V60.7105C669.131 54.2605 672.691 50.6805 679.131 50.6805H689.671C690.741 50.6805 691.461 49.9605 691.461 48.8905V37.6005Z" fill="#00313C"/>
<path d="M749.434 112.691V124.351C749.434 125.421 750.154 126.131 751.404 126.131H766.424C767.494 126.131 768.214 125.421 768.214 124.351V65.0405C768.214 51.3305 758.214 36.0605 732.404 35.8605V35.8105H705.544C704.884 35.8105 704.344 36.3605 704.344 37.0205V49.4105C704.344 50.0705 704.884 50.6205 705.544 50.6205H731.204C731.464 50.6205 731.484 50.2805 731.694 50.1405V50.6205C741.054 50.6205 748.914 54.9605 748.914 65.2205L748.764 69.0805L725.994 72.4605C699.464 76.1805 691.484 90.5605 691.484 103.651C691.484 120.311 704.864 127.901 719.654 127.901C734.444 127.901 744.414 121.351 749.454 112.681L749.434 112.691ZM726.844 111.461C717.094 111.461 710.954 107.221 710.954 98.8905C710.954 91.1105 716.914 87.0305 726.844 85.6105L748.874 82.4105V90.7405C748.874 98.8905 741.484 111.461 726.844 111.461Z" fill="#00313C"/>
<path d="M785.517 125.35H802.047C803.147 125.35 804.017 124.55 804.017 123.56V1.79C804.017 0.8 803.147 0 802.047 0H785.517C784.447 0 783.547 0.8 783.547 1.79V123.57C783.547 124.56 784.447 125.36 785.517 125.36V125.35Z" fill="#00313C"/>
<path d="M635.937 110.5H625.397C618.947 110.5 615.397 106.93 615.397 100.48V50.7598H635.047C636.147 50.7598 636.837 50.0398 636.837 48.9698V37.6898C636.837 36.6298 636.117 35.8998 635.047 35.8998H615.397V17.1298C615.397 16.0498 614.677 15.3398 613.607 15.3398L598.587 19.3398C597.507 19.3398 596.797 20.0598 596.797 21.1298V103.16C596.797 116.57 605.547 125.34 621.667 125.34H635.937C637.007 125.34 637.727 124.62 637.727 123.55V112.27C637.727 111.21 637.007 110.48 635.937 110.48V110.5Z" fill="#00313C"/>
<path d="M951.294 176.819C953.644 176.009 954.674 173.849 954.674 171.729C954.674 168.999 952.984 166.279 949.094 166.279H942.364C942.234 166.279 942.164 166.379 942.164 166.529V183.969C942.164 184.089 942.244 184.189 942.364 184.189H944.564C944.714 184.189 944.824 184.089 944.824 183.939V177.159H948.454L952.264 184.009C952.344 184.109 952.444 184.179 952.574 184.179H954.724C954.874 184.179 954.954 184.079 954.954 183.929V183.609C954.954 183.489 954.904 183.269 954.904 183.269L951.294 176.809V176.819ZM948.434 174.859H944.824V168.669H948.434C950.734 168.669 951.864 170.189 951.864 171.769C951.864 173.349 950.764 174.859 948.434 174.859Z" fill="#00313C"/>
<path d="M948.56 158.609C939.4 158.609 931.93 166.069 931.93 175.239C931.93 184.409 939.4 191.869 948.56 191.869C957.72 191.869 965.19 184.409 965.19 175.239C965.19 166.069 957.72 158.609 948.56 158.609ZM948.56 189.259C940.83 189.259 934.54 182.979 934.54 175.239C934.54 167.499 940.83 161.219 948.56 161.219C956.29 161.219 962.58 167.499 962.58 175.239C962.58 182.979 956.31 189.259 948.56 189.259Z" fill="#00313C"/>
<path d="M148.573 201.78C145.943 197.22 141.062 194.41 135.782 194.41H110.112C104.822 194.41 99.9525 197.22 97.3225 201.78L84.4725 223.94C81.8425 228.5 81.8425 234.09 84.4725 238.65L97.3225 260.81C99.9525 265.37 104.832 268.18 110.112 268.18H135.782C141.072 268.18 145.943 265.37 148.573 260.81L161.413 238.65C164.043 234.09 164.043 228.5 161.413 223.94L148.573 201.78Z" fill="#00BFB3"/>
<path d="M148.573 7.37C145.943 2.81 141.062 0 135.782 0H110.112C104.822 0 99.9525 2.81 97.3225 7.37L84.4725 29.53C81.8425 34.09 81.8425 39.68 84.4725 44.24L97.3225 66.4C99.9525 70.96 104.832 73.77 110.112 73.77H135.782C141.072 73.77 145.943 70.96 148.573 66.4L161.413 44.24C164.043 39.68 164.043 34.09 161.413 29.53L148.573 7.37Z" fill="#00BFB3"/>
<path d="M243.915 173.889L231.065 151.729C228.435 147.169 223.555 144.359 218.275 144.359H192.605C187.315 144.359 182.445 147.169 179.815 151.729L166.965 173.889C164.335 178.449 164.335 184.039 166.965 188.599L179.815 210.759C182.445 215.319 187.325 218.129 192.605 218.129H218.275C223.565 218.129 228.435 215.319 231.065 210.759L243.915 188.599C246.545 184.039 246.545 178.449 243.915 173.889Z" fill="#00BFB3"/>
<path d="M66.0725 59.0497C63.4425 54.4897 58.5625 51.6797 53.2825 51.6797H27.6225C22.3325 51.6797 17.4625 54.4897 14.8325 59.0497L1.9725 81.2097C-0.6575 85.7697 -0.6575 91.3597 1.9725 95.9197L14.8225 118.08C17.4525 122.64 22.3325 125.45 27.6125 125.45H53.2725C58.5625 125.45 63.4325 122.64 66.0625 118.08L78.9125 95.9197C81.5425 91.3597 81.5425 85.7697 78.9125 81.2097L66.0625 59.0497H66.0725Z" fill="#00BFB3"/>
<path d="M179.011 116.61C182.141 122.03 188.001 125.4 194.271 125.4H216.611C222.881 125.4 228.721 122.03 231.871 116.61L243.051 97.3197C246.201 91.8997 246.201 85.1797 243.051 79.7597L231.871 60.4697C228.751 55.0497 222.881 51.6797 216.611 51.6797H194.271C188.001 51.6797 182.161 55.0497 179.011 60.4697L167.831 79.7597C164.681 85.1797 164.681 91.8997 167.831 97.3197L179.011 116.61ZM176.081 84.5597L187.261 65.2697C188.711 62.7797 191.391 61.2297 194.271 61.2297H216.611C219.491 61.2297 222.191 62.7697 223.621 65.2697L234.801 84.5597C236.231 87.0297 236.231 90.1197 234.801 92.6097L223.621 111.9C222.171 114.39 219.491 115.94 216.611 115.94H194.271C191.381 115.94 188.691 114.39 187.261 111.9L176.081 92.6097C174.651 90.1397 174.651 87.0497 176.081 84.5597Z" fill="#00BFB3"/>
<path d="M66.0703 151.761C63.4403 147.201 58.5603 144.391 53.2803 144.391H27.6203C22.3303 144.391 17.4603 147.201 14.8303 151.761L1.98031 173.891C-0.649688 178.451 -0.649688 184.041 1.98031 188.601V188.631L14.8303 210.791C17.4603 215.351 22.3403 218.161 27.6203 218.161H53.2803C58.5703 218.161 63.4403 215.351 66.0703 210.791L78.9203 188.631C81.5503 184.071 81.5503 178.481 78.9203 173.921L66.0703 151.761Z" fill="#00BFB3"/>
</g>
<defs>
<clipPath id="clip0_6239_5144">
<rect width="965.18" height="268.61" fill="white"/>
</clipPath>
</defs>
</svg>
