<svg id="Grupo_521" data-name="Grupo 521" xmlns="http://www.w3.org/2000/svg" xmlns:xlink="http://www.w3.org/1999/xlink" width="63.57" height="23.994" viewBox="0 0 63.57 23.994">
  <defs>
    <clipPath id="clip-path">
      <rect id="Retângulo_337" data-name="Retângulo 337" width="63.57" height="23.994" fill="none"/>
    </clipPath>
  </defs>
  <g id="Grupo_520" data-name="Grupo 520" clip-path="url(#clip-path)">
    <path id="Caminho_602" data-name="Caminho 602" d="M971.669,2.37,971.11.095A.124.124,0,0,0,970.99,0h-3.806a.124.124,0,0,0-.121.154l.817,3.324a3.135,3.135,0,0,0,.566,1.172l3.043,3.931a.177.177,0,0,1,0,.217l-3.043,3.931a3.136,3.136,0,0,0-.566,1.172l-.817,3.324a.124.124,0,0,0,.121.154h3.806a.124.124,0,0,0,.121-.095l.559-2.276,3.961-5.116a1.964,1.964,0,0,0,0-2.4Z" transform="translate(-923.148)"/>
    <path id="Caminho_603" data-name="Caminho 603" d="M1210.37,13.9a3.138,3.138,0,0,0-.566-1.172L1206.761,8.8a.177.177,0,0,1,0-.217l3.043-3.931a3.138,3.138,0,0,0,.566-1.172l.817-3.324a.124.124,0,0,0-.121-.154h-3.806a.124.124,0,0,0-.121.095l-.559,2.276-3.961,5.116a1.964,1.964,0,0,0,0,2.4l3.961,5.116.559,2.276a.124.124,0,0,0,.121.095h3.806a.124.124,0,0,0,.121-.154Z" transform="translate(-1147.619)"/>
    <path id="Caminho_604" data-name="Caminho 604" d="M506.9,0a.129.129,0,0,0-.129.129V10.467a2.816,2.816,0,0,1-2.258,2.779,18.155,18.155,0,0,1-3.431.324,18.156,18.156,0,0,1-3.431-.324,2.816,2.816,0,0,1-2.258-2.779V.129A.129.129,0,0,0,495.262,0h-3.635a.129.129,0,0,0-.129.129V10.467a6.711,6.711,0,0,0,5.413,6.6,22,22,0,0,0,4.168.395,22,22,0,0,0,4.168-.395,6.711,6.711,0,0,0,5.413-6.6V.129A.129.129,0,0,0,510.532,0Z" transform="translate(-469.18)"/>
    <path id="Caminho_605" data-name="Caminho 605" d="M14.108,6.232A2.235,2.235,0,0,1,16.279,9L15.07,13.923a2.625,2.625,0,0,1-2.555,2h-8.7V6.232Zm0-3.813H.129A.129.129,0,0,0,0,2.548V19.611a.129.129,0,0,0,.129.129H12.515a6.444,6.444,0,0,0,6.258-4.906L19.982,9.91a6.048,6.048,0,0,0-5.873-7.491" transform="translate(0 -2.309)"/>
    <path id="Caminho_606" data-name="Caminho 606" d="M1.934,453.766v-1.459H.8v1.459a.022.022,0,0,1-.02.02H.02a.022.022,0,0,1-.02-.02v-3.457a.021.021,0,0,1,.02-.02H.779a.022.022,0,0,1,.02.02v1.324H1.934v-1.324a.021.021,0,0,1,.02-.02h.809a.021.021,0,0,1,.02.02v3.457a.021.021,0,0,1-.02.02H1.954a.022.022,0,0,1-.02-.02" transform="translate(0 -429.843)"/>
    <path id="Caminho_607" data-name="Caminho 607" d="M131.273,452.7v-2.388a.022.022,0,0,1,.02-.02h.759a.021.021,0,0,1,.02.02v2.348c0,.4.175.5.475.5h.1c.3,0,.475-.1.475-.5v-2.348a.022.022,0,0,1,.02-.02h.759a.022.022,0,0,1,.02.02V452.7c0,.814-.45,1.139-1.254,1.139h-.145c-.8,0-1.254-.325-1.254-1.139" transform="translate(-125.312 -429.843)"/>
    <path id="Caminho_608" data-name="Caminho 608" d="M259.687,453.766v-3.457a.022.022,0,0,1,.02-.02h.734a.034.034,0,0,1,.035.02l.844,1.644.824-1.644a.038.038,0,0,1,.035-.02h.734a.022.022,0,0,1,.02.02v3.457a.022.022,0,0,1-.02.02h-.734a.022.022,0,0,1-.02-.02v-2.088l-.575,1.154a.036.036,0,0,1-.03.015h-.44a.036.036,0,0,1-.03-.015l-.625-1.169v2.1a.021.021,0,0,1-.02.02h-.734a.022.022,0,0,1-.02-.02" transform="translate(-247.895 -429.843)"/>
    <path id="Caminho_609" data-name="Caminho 609" d="M398.993,453.767v-.874a1.543,1.543,0,0,1,.115-.615l.774-1.964a.033.033,0,0,1,.035-.025h1.014a.033.033,0,0,1,.035.025l.774,1.964a1.542,1.542,0,0,1,.115.615v.874a.021.021,0,0,1-.02.02H401.1a.022.022,0,0,1-.02-.02v-.774h-1.314v.774a.022.022,0,0,1-.02.02h-.734a.022.022,0,0,1-.02-.02m1.964-1.4-.53-1.459-.535,1.459Z" transform="translate(-380.876 -429.844)"/>
    <path id="Caminho_610" data-name="Caminho 610" d="M529.829,453.766v-3.457a.022.022,0,0,1,.02-.02h.689a.041.041,0,0,1,.03.02l1.219,2.118v-2.118a.022.022,0,0,1,.02-.02h.734a.022.022,0,0,1,.02.02v3.457a.022.022,0,0,1-.02.02h-.689a.041.041,0,0,1-.03-.02l-1.219-2.118v2.118a.021.021,0,0,1-.02.02h-.734a.022.022,0,0,1-.02-.02" transform="translate(-505.771 -429.843)"/>
    <path id="Caminho_611" data-name="Caminho 611" d="M741.825,453.766v-1.459H740.69v1.459a.021.021,0,0,1-.02.02h-.759a.022.022,0,0,1-.02-.02v-3.457a.022.022,0,0,1,.02-.02h.759a.021.021,0,0,1,.02.02v1.324h1.134v-1.324a.022.022,0,0,1,.02-.02h.809a.022.022,0,0,1,.02.02v3.457a.022.022,0,0,1-.02.02h-.809a.022.022,0,0,1-.02-.02" transform="translate(-706.294 -429.843)"/>
    <path id="Caminho_612" data-name="Caminho 612" d="M871.605,453.766v-3.457a.022.022,0,0,1,.02-.02h2.258a.022.022,0,0,1,.02.02v.635a.022.022,0,0,1-.02.02H872.4v.7h1.269a.021.021,0,0,1,.02.02v.609a.021.021,0,0,1-.02.02H872.4v.8h1.479a.022.022,0,0,1,.02.02v.635a.022.022,0,0,1-.02.02h-2.258a.022.022,0,0,1-.02-.02" transform="translate(-832.028 -429.843)"/>
    <path id="Caminho_613" data-name="Caminho 613" d="M988.133,453.767v-.874a1.543,1.543,0,0,1,.115-.615l.774-1.964a.033.033,0,0,1,.035-.025h1.014a.033.033,0,0,1,.035.025l.774,1.964a1.541,1.541,0,0,1,.115.615v.874a.022.022,0,0,1-.02.02h-.734a.022.022,0,0,1-.02-.02v-.774h-1.314v.774a.022.022,0,0,1-.02.02h-.734a.022.022,0,0,1-.02-.02m1.964-1.4-.53-1.459-.535,1.459Z" transform="translate(-943.264 -429.844)"/>
    <path id="Caminho_614" data-name="Caminho 614" d="M1118.968,453.766v-3.457a.022.022,0,0,1,.02-.02h.759a.021.021,0,0,1,.02.02v2.8h1.3a.022.022,0,0,1,.02.02v.635a.022.022,0,0,1-.02.02h-2.083a.022.022,0,0,1-.02-.02" transform="translate(-1068.159 -429.843)"/>
    <path id="Caminho_615" data-name="Caminho 615" d="M1220.021,453.766v-2.8h-.789a.022.022,0,0,1-.02-.02v-.635a.022.022,0,0,1,.02-.02h2.378a.022.022,0,0,1,.02.02v.635a.022.022,0,0,1-.02.02h-.789v2.8a.021.021,0,0,1-.02.02h-.759a.022.022,0,0,1-.02-.02" transform="translate(-1163.851 -429.843)"/>
    <path id="Caminho_616" data-name="Caminho 616" d="M1340.647,453.766v-1.459h-1.134v1.459a.022.022,0,0,1-.02.02h-.759a.021.021,0,0,1-.02-.02v-3.457a.021.021,0,0,1,.02-.02h.759a.022.022,0,0,1,.02.02v1.324h1.134v-1.324a.022.022,0,0,1,.02-.02h.809a.022.022,0,0,1,.02.02v3.457a.022.022,0,0,1-.02.02h-.809a.022.022,0,0,1-.02-.02" transform="translate(-1277.926 -429.843)"/>
  </g>
</svg>
