<?xml version="1.0" encoding="utf-8" ?><svg xmlns="http://www.w3.org/2000/svg" xmlns:xlink="http://www.w3.org/1999/xlink" width="492" height="254" viewBox="0 0 492 254"><path fill="#FEFEFE" d="M330.374 6.62402L331.035 6.72753L331.278 7.08269C330.783 8.64701 329.334 10.0981 328.447 11.5048L320.566 24.141C312.253 37.2857 304.278 50.73 295.717 63.707C295.191 64.5043 294.708 65.121 293.95 65.7117C306.505 65.3627 319.122 65.6325 331.688 65.6339L401.425 65.6373L449.937 65.6358C458.062 65.6348 466.408 65.2093 474.508 65.7029C479.167 65.9458 483.535 68.044 486.637 71.5292C489.517 74.8257 490.822 78.9037 490.5 83.2623C490.141 88.1355 487.925 93.1082 486.357 97.7112L481.47 112.274C479.333 118.653 476.637 128.587 473.796 134.375C472.192 137.644 469.878 140.705 467.103 143.068C462.902 146.647 457.701 149.289 452.186 149.993C448.625 150.447 444.876 150.257 441.289 150.256L424.049 150.243L365.166 150.243L282.836 150.245L256.492 150.253C251.484 150.253 246.373 150.474 241.386 150.079C239.501 152.677 237.912 155.653 236.205 158.382L225.083 176.118L189.717 232.427C187.559 235.861 178.523 251.041 176.603 252.71C177.674 248.321 179.98 243.602 181.587 239.313C183.616 232.851 186.348 226.441 188.723 220.079L202.398 183.305L210.334 161.97C211.743 158.155 212.928 153.847 214.878 150.287L77.4383 150.24L36.8499 150.247C30.9417 150.252 22.2426 150.737 16.6881 150.113C12.0723 149.593 7.81226 147.491 4.90155 143.814C2.15209 140.342 1.11405 136.188 1.6226 131.817C2.3357 125.687 6.45385 115.448 8.55086 109.029C11.2075 100.897 13.5388 92.4951 16.6084 84.5233C17.3573 82.5851 18.271 80.7147 19.3393 78.9325C21.9849 74.5772 25.7501 71.1662 30.2285 68.7587C33.509 66.9952 36.9364 66.0156 40.6428 65.7078C45.8648 65.2741 51.3278 65.6088 56.5761 65.6162L86.74 65.634L184.099 65.6235L205.434 65.6495C209.117 65.6549 213.724 66.1719 217.273 65.2913C220.341 64.5301 223.733 62.1079 226.562 60.5902C229.237 59.1551 231.979 57.82 234.676 56.4233L283.445 31.1909L316.612 14.0217C319.918 12.309 327.667 8.82656 330.28 6.70316C330.312 6.67737 330.343 6.6504 330.374 6.62402Z"/><path fill="#1D1D1D" d="M307.411 25.4607C309.128 24.5132 314.495 22.1552 315.375 20.7394C315.418 21.312 315.3 21.7154 315.012 22.2076C308.577 33.194 301.226 44.1591 294.423 54.9902L287.707 65.6786C286.68 67.3104 285.673 69.3082 284.411 70.7566C284.164 71.0402 283.901 71.2838 283.598 71.5066L412.237 71.4951L453.546 71.4883C459.802 71.4877 467.846 71.0151 473.931 71.6293C477.038 71.943 479.425 72.6615 481.714 74.9041C483.66 76.8113 484.607 79.4477 484.574 82.1521C484.553 83.8337 484.169 85.5314 483.719 87.1458C482.909 90.0544 481.791 92.907 480.818 95.7673L476.089 109.922C473.829 116.699 471.346 125.789 468.417 131.998C467.31 134.344 465.821 136.226 463.945 138.009C460.717 141.076 456.249 143.553 451.798 144.166C445.883 144.981 436.556 144.439 430.342 144.432L388.358 144.42L238.233 144.44L212.59 185.215C208.847 191.163 204.995 198.03 200.979 203.65C202.043 200.444 203.393 197.339 204.592 194.183C205.979 190.534 207.201 186.828 208.82 183.272C210.101 178.924 211.824 174.666 213.406 170.421C216.625 161.785 219.994 153.181 222.997 144.469L80.3401 144.421L38.1688 144.424L25.3535 144.442C22.7624 144.449 20.0791 144.589 17.4995 144.34C14.8929 144.088 12.4261 143.123 10.5037 141.313C8.51969 139.421 7.39222 136.802 7.38134 134.061C7.36725 132.524 7.78171 130.897 8.18339 129.42C10.5165 120.844 13.7399 112.358 16.5243 103.91C18.5851 97.6585 20.1923 90.8545 22.8529 84.8586C23.9666 82.3313 25.5427 80.0342 27.5001 78.0857C30.6745 74.9215 35.0413 72.3776 39.5228 71.7284C44.9755 70.9385 51.9045 71.4874 57.5482 71.4982L92.056 71.5026L217.818 71.5037C220.51 70.9564 231.877 64.374 235.14 62.7005L281.857 38.5605C290.342 34.1679 298.79 29.5734 307.411 25.4607Z"/><path fill="#E4241D" d="M217.818 71.5037C220.51 70.9564 231.877 64.374 235.14 62.7005L281.857 38.5605C290.342 34.1679 298.79 29.5734 307.411 25.4607C307.44 25.6234 307.542 25.931 307.524 26.0838C307.5 26.2877 259.386 103.725 255.361 109.491C254.933 110.108 254.427 110.667 253.855 111.154C255.23 108.029 261.032 94.5056 260.04 92.3174C259.698 91.5629 258.785 91.1036 258.029 90.8885C255.998 90.3107 251.484 90.2164 249.563 91.1784C247.938 91.9924 247.104 96.2823 246.667 97.94L246.565 98.3292C245.646 95.6731 244.693 93.9653 242.335 92.2903C245.379 85.538 247.233 78.2356 250.327 71.5287L198.034 81.9647C201.064 80.3191 216.413 72.9859 217.818 71.5037Z"/><path fill="#E4241D" d="M239.669 118.276C240.441 120.73 241.205 122.898 243.635 124.185C244.315 124.545 245.055 124.819 245.766 125.113C236.426 138.97 227.607 154.007 218.664 168.226C216.248 172.066 211.738 180.39 208.82 183.272C210.101 178.924 211.824 174.666 213.406 170.421C216.625 161.785 219.994 153.181 222.997 144.469C225.59 138.148 227.764 131.664 230.233 125.294C232.249 125.342 235.502 125.84 237.083 124.373C238.576 122.989 238.972 120.149 239.669 118.276Z"/><path fill="#FEFEFE" d="M354.424 93.1242C356.111 92.636 374.931 92.7276 377.394 92.9387C378.393 93.0244 379.448 93.2161 380.345 93.6858C381.442 94.2607 382.19 95.3476 382.514 96.5256C382.731 97.3163 382.806 98.2203 382.658 99.0294C382.093 102.104 376.989 117.164 375.477 119.677C374.551 121.217 372.982 122.055 371.29 122.483C368.655 123.837 347.948 123.183 343.735 123.065C343.868 122.95 343.988 122.829 344.1 122.693C344.825 121.817 354.488 93.9285 354.424 93.1242Z"/><path fill="#1D1D1D" d="M360.62 98.8747C363.519 98.4961 369.748 98.4049 372.551 98.8709C373.292 98.9942 373.76 99.0942 374.202 99.7047C374.37 102.493 370.81 111.79 369.528 114.822C369.016 116.032 368.725 116.631 367.508 117.125C365.216 117.835 356.684 117.283 353.678 117.316C353.713 117.288 353.748 117.261 353.781 117.232C354.697 116.417 360.472 100.788 360.62 98.8747Z"/><path fill="#FEFEFE" d="M122.164 92.854C122.315 92.8369 122.463 92.8207 122.616 92.8149C126.236 92.6778 139.709 92.0095 141.821 94.3186C142.474 95.0328 142.603 96.3014 142.587 97.2183C142.539 100.013 139.751 108.502 137.737 110.356C137.152 110.894 136.484 110.989 135.729 111.084C133.256 111.394 130.585 111.181 128.089 111.175C124.057 111.166 119.998 111.252 115.971 111.062C115.478 112.343 114.629 114.04 114.543 115.401C114.515 115.839 114.566 116.092 114.878 116.403C116.39 117.912 126.546 117.266 129.125 117.243L136.504 117.242C135.916 119.244 135.156 121.211 134.461 123.179C129.057 123.151 113.545 123.837 109.321 122.6C107.554 122.082 106.864 120.938 106.036 119.4C106.426 115.445 112.049 98.4088 114.412 95.6922C116.371 93.4389 119.368 93.0614 122.164 92.854Z"/><path fill="#1D1D1D" d="M121.381 98.786C124.027 98.5381 130.69 98.1712 133.002 99.0259C133.719 99.2909 134.107 99.6312 134.426 100.342C134.628 101.566 133.56 103.584 133.09 104.717C132.568 105.124 132.485 105.073 131.812 105.054L118.065 105.047C118.819 102.691 119.368 100.398 121.381 98.786Z"/><path fill="#FEFEFE" d="M327.174 92.8747C331.798 92.523 336.728 92.697 341.371 92.7776C343.168 92.8088 346.434 92.9133 347.677 94.3681C348.343 95.1481 348.466 96.3703 348.429 97.3523C348.322 100.172 345.603 108.533 343.535 110.358C342.966 110.86 342.39 111.001 341.657 111.099C339.341 111.407 336.794 111.175 334.453 111.169C330.149 111.157 325.82 111.245 321.521 111.031C321.771 112.891 319.881 114.292 320.576 116.24C322.486 118.042 331.813 117.27 334.687 117.243L341.964 117.243C341.995 117.355 342.051 117.523 342.059 117.647C342.139 118.943 340.779 122.23 339.911 123.156C335.295 123.164 316.471 123.991 313.639 121.849C312.788 121.206 312.138 120.183 311.993 119.119C311.673 116.765 318.318 98.0578 320.063 95.7957C321.693 93.6831 324.69 93.1764 327.174 92.8747Z"/><path fill="#1D1D1D" d="M326.88 98.8746C329.426 98.5139 337.868 98.0933 339.885 99.5143C340.136 99.8999 340.277 100.218 340.294 100.685C340.335 101.82 339.476 103.905 338.651 104.717C338.155 105.205 337.599 105.051 336.937 105.06L323.344 105.07C325.011 103.588 324.923 100.755 326.88 98.8746Z"/><path fill="#FEFEFE" d="M217.471 92.7785C222.539 92.7833 235.696 91.9686 239.883 93.5776C242.255 94.489 243.29 95.7867 244.269 98.0354C243.419 101.294 242.15 104.484 241.039 107.661C239.218 112.837 237.429 118.024 235.67 123.222L213.767 123.116L213.548 123.1C211.675 122.946 209.748 122.681 208.486 121.133C207.656 120.116 207.459 118.838 207.604 117.564C207.964 114.403 210.585 107.044 213.003 105.068C215.864 104.359 230.758 104.631 234.202 104.99C234.748 103.527 236.036 101.101 235.439 99.6393C233.06 97.7667 219.086 98.6751 215.336 98.6943C215.98 96.6892 216.689 94.7335 217.471 92.7785Z"/><path fill="#1D1D1D" d="M217.775 110.878C222.577 110.641 227.462 110.84 232.274 110.793C231.451 112.919 230.717 115.089 229.942 117.234L220.192 117.275C218.755 117.269 216.959 117.204 215.89 116.124C215.639 115.153 216.022 114.374 216.325 113.432C216.631 112.482 216.876 111.337 217.775 110.878Z"/><path fill="#FEFEFE" d="M435.218 92.8748C438.255 92.4299 451.564 92.5958 454.701 92.9186C456.914 93.1463 459.704 93.8778 461.141 95.7131C461.672 96.3916 462.17 97.5625 462.06 98.4303C461.816 100.437 454.293 122.093 453.326 123.135C451.284 123.44 448.906 123.183 446.815 123.179L431.623 123.125C429.725 122.949 427.553 122.624 426.242 121.092C425.564 120.301 425.547 119.178 425.625 118.188C425.842 115.459 428.444 107.165 430.494 105.469C431.829 104.364 449.249 104.712 451.95 104.958C452.691 103.933 453.472 102.226 453.606 100.956C453.659 100.455 453.586 99.7577 453.232 99.383C451.855 97.9276 435.665 98.6074 432.934 98.6146C434.005 97.5074 434.977 94.4067 435.218 92.8748Z"/><path fill="#1D1D1D" d="M435.774 110.875C440.443 110.655 445.16 110.885 449.838 110.792C449.896 111.178 449.892 111.518 449.804 111.898C449.494 113.231 448.681 116.412 447.538 117.125C447.351 117.166 447.18 117.202 446.988 117.216C444.163 117.413 435.958 117.837 433.956 116.203C433.512 115.2 434.094 114.102 434.427 113.082C434.732 112.149 434.877 111.331 435.774 110.875Z"/><path fill="#FEFEFE" d="M182.602 92.7583C187.903 92.8517 201.736 92.0737 205.954 93.2702C206.928 93.5465 208.319 94.1239 208.819 95.0714C209.757 96.8515 209.724 98.5332 209.187 100.404C207.727 105.487 206.833 109.757 201.868 112.513C202.842 115.953 203.543 119.517 204.274 123.017C201.492 123.326 198.658 123.226 195.861 123.222C195.619 121.708 195.303 120.201 195.011 118.696C194.485 116.505 194.182 114.25 193.823 112.027C190.364 111.981 186.901 112.016 183.442 112.013C182.158 115.764 180.846 119.505 179.508 123.237L171.767 123.191C175.471 113.133 178.384 102.592 182.602 92.7583Z"/><path fill="#1D1D1D" d="M197.646 98.6209C198.668 98.6057 200.113 98.4929 200.903 99.2459C201.374 99.6953 201.588 100.444 201.603 101.083C201.637 102.483 200.926 103.971 199.935 104.941C198.046 106.79 192.721 106.036 190.125 106.009L185.538 106C186.451 103.593 187.307 101.165 188.105 98.718C191.285 98.7211 194.466 98.6887 197.646 98.6209Z"/><path fill="#FEFEFE" d="M283.504 93.1227C283.923 92.9992 284.314 92.9427 284.75 92.9199C289.041 92.695 293.391 92.9626 297.689 92.9627C301.259 92.9627 305.404 92.5097 308.918 93.095C310.129 93.2967 311.419 93.7269 312.335 94.5772C313.198 95.3795 313.534 96.4599 313.555 97.6149C313.573 98.6334 313.405 99.6651 313.139 100.646C312.277 103.819 306.274 121.768 304.934 123.177C302.227 123.2 299.519 123.153 296.814 123.036C297.262 122.603 297.542 122.155 297.789 121.585C299.562 117.491 300.729 113.048 302.178 108.826C303.019 106.376 304.205 104.035 304.714 101.472C304.862 100.73 304.895 100.347 304.467 99.7032C304.042 99.0622 303.518 98.6337 302.754 98.4829C298.553 98.8953 297.241 112.293 294.654 115.277C294.621 115.315 294.586 115.35 294.551 115.387C294.573 115.505 294.577 115.51 294.588 115.647C294.699 117.049 292.646 122.054 291.712 123.165C289.689 123.257 287.658 123.137 285.636 123.058C285.754 122.951 285.854 122.857 285.941 122.721C286.793 121.385 293.266 102.388 293.935 99.8455C294.034 99.4682 294.032 99.1826 293.947 98.8005C292.336 98.8195 290.725 98.8471 289.114 98.8832C289.134 98.9701 289.177 99.1202 289.179 99.2188C289.207 100.506 281.356 122.407 280.591 123.173C277.969 123.256 275.336 123.11 272.715 123.022C272.853 122.908 272.978 122.788 273.095 122.652C273.869 121.755 283.635 94.4832 283.504 93.1227Z"/><path fill="#FEFEFE" d="M155.706 92.852C162.439 92.3196 169.742 92.7844 176.523 92.8121C175.917 94.8117 175.173 96.7796 174.479 98.7508L162.536 98.6787C160.144 98.6653 157.435 98.3897 155.1 98.8934C154.413 99.3202 154.02 99.8947 153.618 100.582C152.376 102.705 147.895 114.322 148.392 116.284C148.63 116.5 148.884 116.676 149.185 116.79C150.933 117.455 159.87 117.762 161.423 116.9C163.188 115.921 163.933 112.621 164.554 110.804C161.549 111.029 158.389 110.827 155.368 110.813C155.883 109.231 156.655 105.618 158.024 104.793C163.435 104.865 168.846 104.865 174.257 104.794C172.511 108.875 171.678 113.376 169.867 117.442C168.826 119.781 167.451 121.318 165.021 122.229C161.007 123.734 146.84 123.78 142.896 121.949C141.121 121.125 140.496 119.58 139.845 117.858C141.071 113.582 145.68 98.5287 148.094 95.7574C150.044 93.5196 152.916 93.0774 155.706 92.852Z"/><path fill="#FEFEFE" d="M51.5999 92.8142C59.4365 93.061 67.2873 92.6962 75.1226 92.9902C76.3477 93.743 77.4114 94.5771 78.0106 95.926C78.4387 96.8851 78.5701 97.9504 78.3878 98.9848C77.874 101.875 76.472 104.927 75.4981 107.714C73.6941 112.875 72.0117 118.137 69.9709 123.208C67.3657 123.252 64.7599 123.23 62.1558 123.143L68.9917 103.39C69.2056 102.754 69.4228 102.116 69.6053 101.47C69.8119 100.739 69.784 100.322 69.4189 99.6676C66.9557 97.906 60.2994 98.747 57.1902 98.794C56.6113 101.516 55.3952 104.276 54.4629 106.91C52.5118 112.315 50.6143 117.739 48.7707 123.181C46.1852 123.222 43.5991 123.178 41.0165 123.049C42.3927 118.373 44.2811 113.707 45.8614 109.085C47.7024 103.7 49.3418 98.0347 51.5999 92.8142Z"/><path fill="#FEFEFE" d="M407.363 93.1248C410.223 92.7783 413.229 92.9318 416.112 92.9367L429.262 92.9231C429.331 93.1692 429.376 93.4143 429.374 93.6705C429.365 94.9383 428.403 97.7242 427.486 98.6054C423.92 98.7713 420.306 98.6478 416.739 98.5717C414.87 98.5318 412.685 98.2222 410.859 98.6096C409.665 98.8627 408.673 99.4273 407.897 100.376C405.914 102.798 403.68 110.791 402.601 113.983C402.266 114.974 402.089 116.151 401.517 117.027C401.492 117.064 401.465 117.1 401.44 117.137C405.677 117.402 409.943 117.3 414.187 117.289C416.975 117.248 419.762 117.274 422.548 117.367C422.589 117.557 422.613 117.736 422.62 117.93C422.67 119.249 421.551 122.193 420.643 123.174C415.85 123.15 399.626 123.918 396.23 122.177C395.189 121.643 394.304 120.626 393.956 119.505C393.814 119.051 393.747 118.562 393.824 118.091C394.319 115.052 399.45 100.315 400.911 97.6803C402.287 95.1992 404.738 93.8688 407.363 93.1248Z"/><path fill="#FEFEFE" d="M250.682 92.7542L258.012 92.782C258.556 95.146 251.114 111.458 250.527 115.442C250.434 116.074 250.54 116.318 250.88 116.812C253.369 117.853 267.97 117.228 271.72 117.25C271.819 117.488 271.889 117.74 271.879 118C271.828 119.221 271.059 121.507 270.184 122.384C270.212 122.789 270.16 122.777 269.894 123.094C267.871 123.451 265.443 123.129 263.366 123.141C258.605 123.167 253.714 123.439 248.965 123.132C247.713 123.051 246.381 122.906 245.195 122.488C244.088 122.097 243.095 121.353 242.59 120.27C242.249 119.539 242.101 118.627 242.223 117.827C242.666 114.925 244.038 111.871 244.997 109.1L250.682 92.7542Z"/><path fill="#FEFEFE" d="M83.4775 92.7641L111.488 92.8354C110.871 94.8174 110.159 96.7794 109.493 98.7462L98.7955 98.7763C97.0478 104.213 95.1215 109.631 93.1742 115C92.2854 117.752 91.3355 120.485 90.3251 123.196C87.8572 123.228 85.389 123.183 82.924 123.061C85.554 114.932 88.397 106.851 91.1673 98.767L81.2746 98.7477C81.953 96.7362 82.7349 94.7529 83.4775 92.7641Z"/><path fill="#FEFEFE" d="M37.7133 92.6929L45.2697 92.7746C42.1329 103 38.337 113.108 34.7743 123.196C32.1845 123.218 29.5946 123.166 27.0078 123.04C28.0041 119.673 29.3943 116.335 30.562 113.014L37.7133 92.6929Z"/><path fill="#FEFEFE" d="M390.127 92.8748C392.539 92.6405 395.018 92.7955 397.439 92.8405C397.58 93.265 397.527 93.5705 397.401 93.9869C396.521 96.9021 387.846 122.272 387.27 122.801C387.118 122.94 386.779 123.065 386.589 123.167C384.062 123.203 381.561 123.126 379.038 123.009C380.459 121.661 388.661 97.1328 390.127 92.8748Z"/></svg>