<svg width="142" height="40" viewBox="0 0 142 40" fill="none" xmlns="http://www.w3.org/2000/svg">
<path d="M33.5215 35.0978V39.9478H32.4012V35.0928H30.7131V34.1094H35.2519V35.0978H33.5191H33.5215Z" fill="#77787B"/>
<path d="M42.1934 34.1094V39.9478H41.0706V34.1094H42.1934Z" fill="#77787B"/>
<path d="M50.8255 35.0978V39.9478H49.7026V35.0928H48.0171V34.1094H52.5584V35.0978H50.828H50.8255Z" fill="#77787B"/>
<path d="M60.6949 38.8274H58.1753L57.8118 39.9478H56.6416L58.5836 34.1094H60.2492L62.2186 39.9478H61.0683L60.6974 38.8274H60.6949ZM60.4384 37.9958L59.4301 34.9634L58.4367 37.9958H60.4384Z" fill="#77787B"/>
<path d="M73.3972 34.1094V39.9478H71.515L69.8444 36.746C69.7523 36.5692 69.5606 36.1485 69.2643 35.4887L69.08 35.0704H69.0377L69.0502 35.4563C69.0676 35.8397 69.0751 36.2207 69.0751 36.6041V39.9503H67.9746V34.1119H69.8444L71.3656 37.0722C71.525 37.3908 71.7565 37.8664 72.0553 38.5013L72.2769 38.9793H72.3142L72.3018 38.6033C72.2868 38.2274 72.2793 37.849 72.2793 37.4755V34.1119H73.3923L73.3972 34.1094Z" fill="#77787B"/>
<path d="M80.3387 34.1094V39.9478H79.2158V34.1094H80.3387Z" fill="#77787B"/>
<path d="M89.8942 34.1095H91.0145V37.9959C91.0145 38.5362 90.9598 38.9296 90.8527 39.1611C90.6859 39.5271 90.3822 39.7686 89.939 39.8981C89.7 39.9653 89.2742 40.0002 88.6692 40.0002C88.1962 40.0002 87.8401 39.9852 87.6011 39.9554C87.3621 39.9305 87.1604 39.8807 86.9887 39.806C86.6276 39.6491 86.3886 39.4101 86.2741 39.079C86.1969 38.8524 86.1521 38.5138 86.1521 38.0557V34.107H87.275V38.0557C87.275 38.3818 87.3073 38.6009 87.3721 38.7204C87.4517 38.8599 87.6235 38.957 87.885 39.0018C88.0269 39.0242 88.2634 39.0342 88.5945 39.0342C89.0427 39.0342 89.3539 39.0018 89.5282 38.9395C89.7323 38.8673 89.8469 38.6682 89.8817 38.3445C89.8892 38.2623 89.8942 38.1478 89.8942 38.0109V34.1045V34.1095Z" fill="#77787B"/>
<path d="M103.66 34.1094V39.9478H102.552V36.7659C102.552 36.4622 102.57 36.029 102.597 35.4663L102.617 35.0331H102.584L102.453 35.4414C102.256 36.0539 102.119 36.4572 102.047 36.6564L100.762 39.9503H99.7537L98.4565 36.6813C98.3768 36.4771 98.2399 36.0738 98.0407 35.4663L97.9088 35.0629H97.8764L97.8988 35.4887C97.9312 36.0613 97.9461 36.4846 97.9461 36.7659V39.9478H96.8357V34.1094H98.6432L99.6864 36.8157C99.7686 37.0348 99.908 37.4381 100.097 38.0307L100.229 38.4315H100.267L100.391 38.0307C100.57 37.4581 100.702 37.0547 100.792 36.8232L101.82 34.1119H103.663L103.66 34.1094Z" fill="#77787B"/>
<path d="M138.683 2.26562C140.07 2.26562 141.148 3.37107 141.148 4.74789C141.148 6.12471 140.07 7.24259 138.665 7.24259C137.261 7.24259 136.168 6.15458 136.168 4.74789C136.168 3.34119 137.276 2.26562 138.665 2.26562H138.68H138.683ZM138.653 2.76357C137.59 2.76357 136.793 3.65489 136.793 4.7454C136.793 5.8359 137.59 6.72722 138.683 6.72722C139.746 6.74216 140.528 5.85084 140.528 4.7454C140.528 3.63996 139.746 2.76357 138.665 2.76357H138.65H138.653ZM138.284 6.03259H137.722V3.56526C137.943 3.52045 138.255 3.47314 138.653 3.47314C139.111 3.47314 139.318 3.55033 139.495 3.66983C139.626 3.77689 139.731 3.97358 139.731 4.20014C139.731 4.48895 139.522 4.70058 139.228 4.79021V4.82258C139.462 4.89727 139.597 5.09396 139.671 5.42509C139.746 5.80353 139.788 5.9554 139.848 6.03259H139.243C139.171 5.94296 139.126 5.72884 139.051 5.44252C139.009 5.17114 138.86 5.04914 138.551 5.04914H138.287V6.03259H138.284ZM138.299 4.64083H138.563C138.875 4.64083 139.126 4.53377 139.126 4.27733C139.126 4.05076 138.964 3.89889 138.608 3.89889C138.461 3.89889 138.357 3.91383 138.299 3.92876V4.64083Z" fill="#231F20"/>
<path d="M24.9048 2.26562L20.4432 9.99375L15.9816 2.26562H7.35715C3.29391 2.26562 0 5.55954 0 9.62278V28.2559H12.1673V20.3983L16.3675 28.2559H24.5238L28.7265 20.3983V28.2559H40.8913V2.26562H24.9097H24.9048Z" fill="#231F20"/>
<path d="M24.9819 0L20.4431 7.86008L15.9043 0H24.9819Z" fill="#CD181E"/>
<path d="M73.7234 2.26562H65.8011C64.7828 2.26562 63.8118 2.47227 62.9279 2.84573C62.0441 3.21919 61.2498 3.75946 60.5826 4.42671C59.9153 5.09396 58.4364 7.68328 58.4364 7.68328L46.7422 28.2559H62.7262L67.1878 20.5278L71.6494 28.2559H87.6335L73.7259 2.26562H73.7234Z" fill="#231F20"/>
<path d="M62.6492 30.5217L67.1879 22.6592L71.7267 30.5217H62.6492Z" fill="#CD181E"/>
<path d="M118.469 0L113.932 7.86008L109.394 0H118.469Z" fill="#CD181E"/>
<path d="M134.375 28.2559L125.071 14.5226L134.375 2.26562H118.391L113.93 9.99375L109.468 2.26562H93.4841L103.244 14.5226L93.4841 28.2559H109.468L113.93 20.5278L115.974 24.0732C115.974 24.0732 116.853 25.5147 117.433 26.0948C118.1 26.7621 118.897 27.3023 119.778 27.6758C120.662 28.0493 121.633 28.2559 122.651 28.2559H134.375Z" fill="#231F20"/>
</svg>
