<?xml version="1.0" encoding="UTF-8"?>
<svg id="Layer_1" xmlns="http://www.w3.org/2000/svg" version="1.1" viewBox="0 0 1920 614.4">
  <!-- Generator: Adobe Illustrator 29.4.0, SVG Export Plug-In . SVG Version: 2.1.0 Build 152)  -->
  <defs>
    <style>
      .st0 {
        fill: #0a1fe9;
      }
    </style>
  </defs>
  <g>
    <path class="st0" d="M22.4,419V99.4h55v33.5c7.8-22.5,35.8-38.5,73.8-38.5s60.1,11.5,82.1,34.9c22.5,22.9,33.5,51.4,33.5,85.8s-11,62.8-33.5,86.2c-22,22.9-49.5,34.4-82.1,34.4s-66-16.1-73.8-38.5v122H22.4ZM192.6,265.4c13.3-13.3,19.7-30.3,19.7-50.4s-6.4-37.1-19.7-50.4c-12.8-13.3-28.9-20.2-48.6-20.2s-36.7,6.9-50.4,20.2c-13.3,13.3-20.2,30.3-20.2,50.4s6.9,37.1,20.2,50.4c13.8,13.3,30.7,20.2,50.4,20.2s35.8-6.9,48.6-20.2Z"/>
    <path class="st0" d="M279.7,330.5V99.4h54.6v34.4c11-24.3,36.2-39,68.8-39s11.9.5,16.5,1.4v53.2c-6.9-1.4-14.7-2.3-22.9-2.3-38.1,0-62.4,23.8-62.4,61.9v121.5h-54.6Z"/>
    <path class="st0" d="M410.4,214.9c0-34.4,12.4-63.7,36.7-87.1,24.3-23.4,54.1-35.3,89.4-35.3s65.1,11.9,89.4,35.3c24.3,23.4,36.7,52.7,36.7,87.1s-12.4,63.7-36.7,87.1c-24.3,23.4-54.1,35.3-89.4,35.3s-65.1-11.9-89.4-35.3c-24.3-23.4-36.7-52.7-36.7-87.1ZM587.4,266.7c13.8-14.2,20.6-31.2,20.6-51.8s-6.9-37.6-20.6-51.4c-13.8-14.2-30.7-21.1-50.9-21.1s-37.6,6.9-51.4,21.1c-13.3,13.8-20.2,30.7-20.2,51.4s6.9,37.6,20.2,51.8c13.8,13.8,30.7,20.6,51.4,20.6s37.1-6.9,50.9-20.6Z"/>
    <path class="st0" d="M673.6,330.5V10.8h55v122c7.8-22.5,35.8-38.5,73.8-38.5s60.1,11.5,82.1,34.9c22.5,22.9,33.5,51.4,33.5,85.8s-11,62.8-33.5,86.2c-22,22.9-49.5,34.4-82.1,34.4s-66-16.1-73.8-38.5v33.5h-55ZM843.7,265.4c13.3-13.3,19.7-30.3,19.7-50.4s-6.4-37.1-19.7-50.4c-12.8-13.3-28.9-20.2-48.6-20.2s-36.7,6.9-50.4,20.2c-13.3,13.3-20.2,30.3-20.2,50.4s6.9,37.1,20.2,50.4c13.8,13.3,30.7,20.2,50.4,20.2s35.8-6.9,48.6-20.2Z"/>
    <path class="st0" d="M925.4,39.7c0-18.3,14.7-32.6,33-32.6s32.6,14.2,32.6,32.6-14.7,32.6-32.6,32.6-33-14.2-33-32.6ZM930.9,330.5V99.4h55v231.1h-55Z"/>
    <path class="st0" d="M999.2,214.9c0-34.4,12.4-63.7,36.7-87.1,24.3-23.4,54.1-35.3,89.4-35.3s65.1,11.9,89.4,35.3c24.3,23.4,36.7,52.7,36.7,87.1s-12.4,63.7-36.7,87.1-54.1,35.3-89.4,35.3-65.1-11.9-89.4-35.3c-24.3-23.4-36.7-52.7-36.7-87.1ZM1176.2,266.7c13.8-14.2,20.6-31.2,20.6-51.8s-6.9-37.6-20.6-51.4c-13.8-14.2-30.7-21.1-50.9-21.1s-37.6,6.9-51.4,21.1c-13.3,13.8-20.2,30.7-20.2,51.4s6.9,37.6,20.2,51.8c13.8,13.8,30.7,20.6,51.4,20.6s37.1-6.9,50.9-20.6ZM1103.8,77.3l23.4-66.5h62.4l-44.5,66.5h-41.3Z"/>
    <g>
      <path class="st0" d="M1411.5,72.3c17.9,0,32.6-14.2,32.6-32.6s-14.7-32.6-32.6-32.6-33,14.2-33,32.6,14.7,32.6,33,32.6Z"/>
      <polygon class="st0" points="1384 99.4 1334.9 99.4 1334.9 10.8 1279.9 10.8 1279.9 99.4 1250.1 99.4 1250.1 149.3 1279.9 149.3 1279.9 330.5 1334.9 330.5 1334.9 149.3 1384 149.3 1384 330.5 1439 330.5 1439 99.4 1384.9 99.4 1384 99.4"/>
    </g>
    <path class="st0" d="M1652.2,115.4v55c-19.7-18.8-43.6-28.4-71.1-28.4s-39.4,6.9-53.7,20.6c-14.2,13.8-21.1,31.2-21.1,51.8s6.9,38.1,21.1,51.8c14.2,13.8,32.1,20.6,53.7,20.6s51.8-9.6,71.1-28.4v55c-19.3,15.6-44,23.4-74.3,23.4s-65.6-11.5-89.9-34.9c-24.3-23.4-36.2-52.3-36.2-87.6s11.9-64.2,36.2-87.6c24.3-23.4,54.1-34.9,89.9-34.9s54.6,7.8,74.3,23.4Z"/>
    <path class="st0" d="M1842.5,132.8v-33.5h55v231.1h-55v-33.5c-7.8,22.5-35.8,38.5-73.8,38.5s-60.1-11.5-82.5-34.4c-22-23.4-33-51.8-33-86.2s11-62.8,33-85.8c22.5-23.4,50-34.9,82.5-34.9s66,16.1,73.8,38.5ZM1826,265.4c13.8-13.3,20.6-30.3,20.6-50.4s-6.9-37.1-20.6-50.4c-13.3-13.3-30.3-20.2-50-20.2s-35.8,6.9-49.1,20.2c-12.8,13.3-19.3,30.3-19.3,50.4s6.4,37.1,19.3,50.4c13.3,13.3,29.3,20.2,49.1,20.2s36.7-6.9,50-20.2Z"/>
  </g>
  <g>
    <path class="st0" d="M400.5,583v-87.6h33.4c7.4,0,14.1,2.6,19.9,7.9,5.8,5.3,8.7,12.2,8.7,20.6s-2.9,15-8.7,20.4c-5.7,5.4-12.3,8-19.9,8h-17.7v30.7h-15.7ZM416.2,538.1h17c7,0,13.7-5.2,13.7-14.2s-6.7-14.3-13.7-14.3h-17v28.5Z"/>
    <path class="st0" d="M513.8,528.8v-9.2h15.1v63.3h-15.1v-9.2c-2.1,6.2-9.8,10.6-20.2,10.6s-16.5-3.1-22.6-9.4c-6-6.4-9-14.2-9-23.6s3-17.2,9-23.5c6.2-6.4,13.7-9.5,22.6-9.5s18.1,4.4,20.2,10.6ZM509.3,565.1c3.8-3.6,5.7-8.3,5.7-13.8s-1.9-10.2-5.7-13.8c-3.6-3.6-8.3-5.5-13.7-5.5s-9.8,1.9-13.4,5.5c-3.5,3.6-5.3,8.3-5.3,13.8s1.8,10.2,5.3,13.8c3.6,3.6,8,5.5,13.4,5.5s10.1-1.9,13.7-5.5Z"/>
    <path class="st0" d="M536.9,583v-63.3h15v9.4c3-6.7,9.9-10.7,18.8-10.7s3.3.1,4.5.4v14.6c-1.9-.4-4-.6-6.3-.6-10.4,0-17.1,6.5-17.1,17v33.3h-15Z"/>
    <path class="st0" d="M625.9,528.8v-9.2h15.1v63.3h-15.1v-9.2c-2.1,6.2-9.8,10.6-20.2,10.6s-16.5-3.1-22.6-9.4c-6-6.4-9-14.2-9-23.6s3-17.2,9-23.5c6.2-6.4,13.7-9.5,22.6-9.5s18.1,4.4,20.2,10.6ZM621.3,565.1c3.8-3.6,5.7-8.3,5.7-13.8s-1.9-10.2-5.7-13.8c-3.6-3.6-8.3-5.5-13.7-5.5s-9.8,1.9-13.4,5.5c-3.5,3.6-5.3,8.3-5.3,13.8s1.8,10.2,5.3,13.8c3.6,3.6,8,5.5,13.4,5.5s10.1-1.9,13.7-5.5Z"/>
    <path class="st0" d="M723.5,524.1v15.1c-5.4-5.2-11.9-7.8-19.5-7.8s-10.8,1.9-14.7,5.7c-3.9,3.8-5.8,8.5-5.8,14.2s1.9,10.4,5.8,14.2c3.9,3.8,8.8,5.7,14.7,5.7s14.2-2.6,19.5-7.8v15.1c-5.3,4.3-12.1,6.4-20.4,6.4s-18-3.1-24.6-9.5c-6.7-6.4-9.9-14.3-9.9-24s3.3-17.6,9.9-24c6.7-6.4,14.8-9.5,24.6-9.5s15,2.1,20.4,6.4Z"/>
    <path class="st0" d="M726.9,551.3c0-9.4,3.4-17.5,10.1-23.9,6.7-6.4,14.8-9.7,24.5-9.7s17.8,3.3,24.5,9.7c6.7,6.4,10.1,14.4,10.1,23.9s-3.4,17.5-10.1,23.9c-6.7,6.4-14.8,9.7-24.5,9.7s-17.8-3.3-24.5-9.7c-6.7-6.4-10.1-14.4-10.1-23.9ZM775.4,565.5c3.8-3.9,5.7-8.5,5.7-14.2s-1.9-10.3-5.7-14.1c-3.8-3.9-8.4-5.8-13.9-5.8s-10.3,1.9-14.1,5.8c-3.6,3.8-5.5,8.4-5.5,14.1s1.9,10.3,5.5,14.2c3.8,3.8,8.4,5.7,14.1,5.7s10.2-1.9,13.9-5.7Z"/>
    <path class="st0" d="M801.6,583v-63.3h15v9c3-6.2,10.2-10.3,19.2-10.3,15.1,0,24,9.7,24,25.4v39.2h-15.1v-37.1c0-8.7-5-14.1-13.4-14.1s-14.7,6-14.7,14.7v36.4h-15Z"/>
    <path class="st0" d="M916.5,528.8v-9.2h15.1v87.6h-15.1v-33.4c-2.1,6.2-9.8,10.6-20.2,10.6s-16.5-3.1-22.6-9.4c-6-6.4-9-14.2-9-23.6s3-17.2,9-23.5c6.2-6.4,13.7-9.5,22.6-9.5s18.1,4.4,20.2,10.6ZM912,565.1c3.8-3.6,5.7-8.3,5.7-13.8s-1.9-10.2-5.7-13.8c-3.6-3.6-8.3-5.5-13.7-5.5s-9.8,1.9-13.4,5.5c-3.5,3.6-5.3,8.3-5.3,13.8s1.8,10.2,5.3,13.8c3.6,3.6,8,5.5,13.4,5.5s10.1-1.9,13.7-5.5Z"/>
    <path class="st0" d="M938.6,519.7h15.2v36.9c0,9.5,5.4,14.2,13.8,14.2s13.8-4.8,13.8-14.3v-36.8h15.2v37.8c0,8.8-2.8,15.6-8.3,20.2-5.5,4.6-12.4,6.9-20.9,6.9s-15.3-2.3-20.7-6.9c-5.4-4.6-8.2-11.2-8.2-19.9v-38.2Z"/>
    <path class="st0" d="M1002.7,503.3c0-5,4-8.9,9-8.9s8.9,3.9,8.9,8.9-4,8.9-8.9,8.9-9-3.9-9-8.9ZM1004.2,583v-63.3h15.1v63.3h-15.1Z"/>
    <path class="st0" d="M1025.1,563c6.2,5.7,14.1,8.4,23.5,8.4s10.7-2.1,10.7-6-1.1-3.6-4-5.2c-1.4-.8-2.6-1.4-4-1.9-2.5-1.1-7.8-3.3-10.7-4.4-8.9-3.9-13.4-9.9-13.4-17.8s2.1-10.2,6.4-13.4c4.4-3.3,9.8-4.9,16.3-4.9s12.6,1.4,17.1,4.3v13.7c-5-3.1-10.6-4.8-16.5-4.8s-9.2,1.8-9.2,5.4.9,3,2.5,4c1,.5,1.3.8,2.6,1.4,1.5.5,3.6,1.3,5.5,2,3.6,1.4,6.4,2.6,8.3,3.5,1.9.9,4.1,2.3,6.5,3.9,5,3.4,7,7.8,7,13.9s-2.1,9.9-6.3,13.8c-4.1,3.8-10.6,5.7-19.2,5.7s-16.6-2.3-23.2-6.8v-14.8Z"/>
    <path class="st0" d="M1082.5,583v-49.6h-8.2v-13.7h8.2v-24.2h15.1v24.2h13.7v13.7h-13.7v49.6h-15.1Z"/>
    <path class="st0" d="M1161.8,528.8v-9.2h15.1v63.3h-15.1v-9.2c-2.1,6.2-9.8,10.6-20.2,10.6s-16.5-3.1-22.6-9.4c-6-6.4-9-14.2-9-23.6s3-17.2,9-23.5c6.2-6.4,13.7-9.5,22.6-9.5s18.1,4.4,20.2,10.6ZM1157.3,565.1c3.8-3.6,5.7-8.3,5.7-13.8s-1.9-10.2-5.7-13.8c-3.6-3.6-8.3-5.5-13.7-5.5s-9.8,1.9-13.4,5.5c-3.5,3.6-5.3,8.3-5.3,13.8s1.8,10.2,5.3,13.8c3.6,3.6,8,5.5,13.4,5.5s10.1-1.9,13.7-5.5Z"/>
    <path class="st0" d="M1182.4,563c6.2,5.7,14.1,8.4,23.5,8.4s10.7-2.1,10.7-6-1.1-3.6-4-5.2c-1.4-.8-2.6-1.4-4-1.9-2.5-1.1-7.8-3.3-10.7-4.4-8.9-3.9-13.4-9.9-13.4-17.8s2.1-10.2,6.4-13.4c4.4-3.3,9.8-4.9,16.3-4.9s12.6,1.4,17.1,4.3v13.7c-5-3.1-10.6-4.8-16.5-4.8s-9.2,1.8-9.2,5.4.9,3,2.5,4c1,.5,1.3.8,2.6,1.4,1.5.5,3.6,1.3,5.5,2,3.6,1.4,6.4,2.6,8.3,3.5,1.9.9,4.1,2.3,6.5,3.9,5,3.4,7,7.8,7,13.9s-2.1,9.9-6.3,13.8c-4.1,3.8-10.6,5.7-19.2,5.7s-16.6-2.3-23.2-6.8v-14.8Z"/>
    <path class="st0" d="M1258.3,583v-63.3h15v9.4c3-6.7,9.9-10.7,18.8-10.7s3.3.1,4.5.4v14.6c-1.9-.4-4-.6-6.3-.6-10.4,0-17.1,6.5-17.1,17v33.3h-15Z"/>
    <path class="st0" d="M1295.4,551.3c0-9.9,3-18,9.2-24,6.2-6.2,14.1-9.2,23.6-9.2s16.6,3,22.2,9.2c5.8,6,8.7,13.6,8.7,22.5s-.1,3.8-.3,5.4h-48.5c.5,10.1,7.9,16.5,19.1,16.5s17.5-2.4,22.7-7.3v14.1c-6.2,4.3-13.9,6.4-23.4,6.4s-18.1-3-24.2-8.9c-6.2-6-9.2-14.1-9.2-24v-.6ZM1343.8,544.5c0-3.6-1.5-6.9-4.5-9.5-3-2.6-6.7-4-11.1-4s-8.7,1.4-12.1,4c-3.4,2.6-5.2,5.8-5.4,9.5h33Z"/>
    <path class="st0" d="M1413.4,528.8v-9.2h15.1v63.3h-15.1v-9.2c-2.1,6.2-9.8,10.6-20.2,10.6s-16.5-3.1-22.6-9.4c-6-6.4-9-14.2-9-23.6s3-17.2,9-23.5c6.2-6.4,13.7-9.5,22.6-9.5s18.1,4.4,20.2,10.6ZM1408.8,565.1c3.8-3.6,5.7-8.3,5.7-13.8s-1.9-10.2-5.7-13.8c-3.6-3.6-8.3-5.5-13.7-5.5s-9.8,1.9-13.4,5.5c-3.5,3.6-5.3,8.3-5.3,13.8s1.8,10.2,5.3,13.8c3.6,3.6,8,5.5,13.4,5.5s10.1-1.9,13.7-5.5Z"/>
    <path class="st0" d="M1435,503.3c0-5,4-8.9,9-8.9s8.9,3.9,8.9,8.9-4,8.9-8.9,8.9-9-3.9-9-8.9ZM1436.5,583v-63.3h15.1v63.3h-15.1Z"/>
    <path class="st0" d="M1457.3,563c6.2,5.7,14.1,8.4,23.5,8.4s10.7-2.1,10.7-6-1.1-3.6-4-5.2c-1.4-.8-2.6-1.4-4-1.9-2.5-1.1-7.8-3.3-10.7-4.4-8.9-3.9-13.4-9.9-13.4-17.8s2.1-10.2,6.4-13.4c4.4-3.3,9.8-4.9,16.3-4.9s12.6,1.4,17.1,4.3v13.7c-5-3.1-10.6-4.8-16.5-4.8s-9.2,1.8-9.2,5.4.9,3,2.5,4c1,.5,1.3.8,2.6,1.4,1.5.5,3.6,1.3,5.5,2,3.6,1.4,6.4,2.6,8.3,3.5,1.9.9,4.1,2.3,6.5,3.9,5,3.4,7,7.8,7,13.9s-2.1,9.9-6.3,13.8c-4.1,3.8-10.6,5.7-19.2,5.7s-16.6-2.3-23.2-6.8v-14.8Z"/>
    <path class="st0" d="M1516.4,566.8c4.6,0,8.7,3.9,8.7,8.5s-4,8.7-8.7,8.7-8.8-3.8-8.8-8.7,4.1-8.5,8.8-8.5Z"/>
  </g>
</svg>