<svg xmlns="http://www.w3.org/2000/svg" width="1440" height="560" viewBox="0 0 1440 560" fill="none">
    <rect width="1440" height="560" rx="44" fill="#FFF3E6"/>
    <rect width="740" height="560" rx="44" fill="#B45309"/>
    <circle cx="1065" cy="270" r="280" fill="#FED7AA"/>
    <rect x="820" y="196" width="430" height="190" rx="32" fill="#F59E0B"/>
    <rect x="865" y="242" width="340" height="42" rx="21" fill="#FFFBEB"/>
    <rect x="910" y="312" width="250" height="32" rx="16" fill="#FFFBEB"/>
    <path d="M1167 164 1236 94M1204 177l78-34M842 420l-72 52" stroke="#B45309" stroke-width="18" stroke-linecap="round"/>
    <path d="M0 432c139-42 286-50 441-25 115 19 215 70 299 153H44c-24 0-44-20-44-44v-84Z" fill="#FFFFFF" opacity=".24"/>
</svg>
